<svg xmlns="http://www.w3.org/2000/svg" xmlns:xlink="http://www.w3.org/1999/xlink" xmlns:inkscape="http://www.inkscape.org/namespaces/inkscape" version="1.1" width="592" height="365" viewBox="0 0 592 365">
<defs>
<clipPath id="clip_1">
<path transform="matrix(1,0,0,-1,-100,487)" d="M100 122H692V487H100Z" clip-rule="evenodd"/>
</clipPath>
<clipPath id="clip_2">
<path transform="matrix(1,0,0,-1,-100,487)" d="M0 612H792V0H0Z"/>
</clipPath>
<path id="font_3_13" d="M.18099976 .5751648H.3789978C.5469971 .5751648 .5479889 .32704164 .3789978 .32704164H.18099976V.5751648M.3789978 .7011719C.2689972 .70118716 .15899658 .7001953 .04899597 .7001953V0H.18099976V.20605469H.3789978C.7220001 .20605469 .72099307 .7011719 .3789978 .7011719Z"/>
<path id="font_3_12" d="M.37799073 .7138672C.13598633 .7138672 .017990113 .52893069 .017990113 .3451233 .017990113 .16131592 .13198853-.015625 .37799073-.015625 .6239929-.015625 .7350006 .16529846 .7369995 .3461151 .7389984 .52893069 .61898806 .7138672 .37799073 .7138672M.37799073 .5938568C.54299929 .5938568 .60899356 .46199037 .6069946 .3441162 .6049957 .22923279 .54299929 .10536194 .37799073 .10536194 .21299744 .10536194 .15098572 .22824097 .147995 .3431244 .14498902 .46099855 .21299744 .5938568 .37799073 .5938568Z"/>
<path id="font_3_17" d="M1.0569916 .7001953H.9089966L.7489929 .1950531 .57398989 .7001953H.48799134L.31799317 .1950531 .15299988 .7001953H.004989624L.2619934 0H.37399293L.45899964 .2180481 .5319977 .44111634 .60598757 .22006226 .69299319 0H.8049927L1.0569916 .7001953Z"/>
<path id="font_3_6" d="M.57099917 .12998963H.17799378V.28808595H.5569916V.41107179H.17799378V.57218936H.57099917V.7001953H.04699707C.04699707 .4671173 .04699707 .23304749 .04699707 0H.57099917V.12998963Z"/>
<path id="font_3_14" d="M.66999819 .009002686 .45799256 .24836731C.59098818 .2753601 .6349945 .37234498 .6349945 .46827699 .6349945 .5891876 .5479889 .69918826 .3829956 .7001953 .27198792 .7001648 .16099549 .7011719 .049987794 .7011719V0H.18199158V.234375H.30899049L.5130005 0H.66999819V.009002686M.3829956 .5771942C.46598817 .5771942 .5029907 .52124026 .5029907 .465271 .5029907 .40931703 .46699525 .35336305 .3829956 .35336305H.18199158V.5771942H.3829956Z"/>
<path id="font_3_5" d="M.31498719 .7001953C.22898865 .7001953 .12599182 .7001953 .039993287 .7001953V0C.12599182 0 .22898865 0 .31498719 0 .55999758 0 .66799929 .17901612 .6649933 .35609437 .6619873 .52915957 .5549927 .7001953 .31498719 .7001953M.17098999 .57518008H.31498719C.46699525 .57518008 .5309906 .46614076 .5339966 .35708619 .5369873 .24304199 .47399903 .1269989 .31498719 .1269989H.17098999V.57518008Z"/>
<path id="font_3_1" d=""/>
<path id="font_3_3" d="M.1749878 .30293275H.3769989C.43099977 .30293275 .5079956 .26994325 .5079956 .20697022 .5079956 .14099121 .43099977 .12298584 .3769989 .12298584H.1749878V.30293275M.1749878 .58018496H.3769989C.46099855 .58018496 .4869995 .5261078 .4869995 .49404908 .4869995 .45399476 .45999146 .4189453 .3769989 .4189453H.1749878V.58018496M.3769989 .7001953C.2659912 .7001953 .15499878 .7001953 .04499817 .7001953V0C.1559906 0 .2659912 0 .3769989 0 .5219879 0 .6389923 .049987794 .6389923 .20596314 .6389923 .24995423 .60899356 .33694459 .5269928 .36193849 .59199526 .39093019 .6179962 .4429779 .6179962 .49705506 .6179962 .6381836 .5149994 .7001953 .3769989 .7001953Z"/>
<path id="font_3_18" d="M.1659851 .7001953H.008987427V.69418337L.27799989 .28907777V0H.4099884V.28907777L.68899539 .69418337V.7001953H.5299988L.34399415 .4111023 .1659851 .7001953Z"/>
<path id="font_3_15" d="M.58599856 .58462527C.5329895 .69262698 .41999818 .7236328 .31098939 .7236328 .18199158 .72262576 .039993287 .66362 .039993287 .5196228 .039993287 .36260987 .17199707 .32461549 .31498719 .3076172 .4079895 .29760743 .47698976 .27061463 .47698976 .2046051 .47698976 .12860108 .39898683 .099609378 .31599427 .099609378 .23098755 .099609378 .1499939 .13360596 .11898804 .2106018L.008987427 .15361023C.06098938 .025604248 .17098999-.0184021 .31399537-.0184021 .46998597-.0184021 .60798647 .048599245 .60798647 .2046051 .60798647 .37161256 .47200013 .4096222 .32598878 .4276123 .24198914 .43762208 .16999817 .45462037 .16999817 .515625 .16999817 .56762698 .21699524 .6086273 .31498719 .6086273 .3909912 .6086273 .45700074 .5706177 .48098756 .5306244L.58599856 .58462527Z"/>
<path id="font_3_16" d="M.22999573 0H.3619995V.58018496H.58399966V.7001953C.3809967 .7001953 .20999146 .7001953 .0079956059 .7001953V.58018496H.22999573V0Z"/>
<path id="font_3_8" d="M.18099976 0V.7001953H.049987794V0H.18099976Z"/>
<path id="font_3_4" d="M.57598879 .17929077C.5299988 .13334656 .46099855 .10836792 .3999939 .10836792 .22698975 .10836792 .1599884 .22924805 .15899658 .3451233 .1579895 .46200563 .23098755 .5878906 .3999939 .5878906 .46099855 .5878906 .522995 .5669098 .56900027 .52194216L.6569977 .6068878C.58499148 .67788699 .49499513 .71388247 .3999939 .71388247 .14698792 .71388247 .027999878 .52793887 .0289917 .3451233 .02999878 .16331482 .13999939-.015625 .3999939-.015625 .5009918-.015625 .59399417 .017364502 .66600039 .08836365L.57598879 .17929077Z"/>
<path id="font_3_9" d="M.61099246 .7001953H.44699098L.18099976 .40411378V.7001953H.04899597V0H.18099976V.31007386L.47399903 0H.6369934V.0079956059L.2999878 .36109925 .61099246 .6961975V.7001953Z"/>
<path id="font_3_10" d="M.04899597 .7001953V0H.54100039V.12199402H.18099976V.7001953H.04899597Z"/>
<path id="font_3_2" d="M.6049957 0H.7489929L.43499757 .7001953H.29100038L-.023010254 0H.11999512L.17999268 .13188172H.54599L.6049957 0M.49299623 .2548828H.23298645L.36299134 .5530853 .49299623 .2548828Z"/>
<path id="font_3_11" d="M.5089874 .2660675 .1659851 .7001953H.05899048V0H.19099427V.4721222L.5589905-.0009765625V0H.6409912V.7011719H.5089874V.2660675Z"/>
<path id="font_3_7" d="M.6569977-.0009765625V.69921877H.526001V.40422059H.18199158V.69921877H.049987794V-.0009765625H.18199158V.28222657H.526001V-.0009765625H.6569977Z"/>
</defs>
<g clip-path="url(#clip_1)">
<g inkscape:groupmode="layer" inkscape:label="Layer 1">
<g inkscape:groupmode="layer" inkscape:label="Layer 2">
<g clip-path="url(#clip_2)">
<path transform="matrix(1,0,0,-1,43.044694,354.162)" d="M0 0C-18.993 0-34.445 15.409-34.445 34.349V185.404C-34.445 204.344-18.993 219.753 0 219.753H123.23L123.233 220.697H124.143C124.148 226.662 124.282 233.166 124.821 239.594L124.871 240.231C125.071 242.806 125.419 247.313 127.789 252.02 127.789 252.85 127.766 253.692 127.742 254.468 127.586 259.53 127.65 264.486 127.712 269.279L127.723 270.158C127.813 277.21 130.37 283.694 135.166 289.137 134.96 290.355 134.843 291.629 134.815 292.954 134.786 294.269 134.812 295.593 134.89 296.881 135.697 310.056 142.372 317.597 155.297 319.938 158.767 320.567 162.548 321.185 166.686 321.456 167.225 321.492 167.753 321.508 168.265 321.508 171.369 321.508 174.308 320.88 176.951 319.694 180.664 324.387 184.717 329.05 189.208 333.797 194.235 339.422 200.986 342.789 209.275 343.807L209.435 343.825C224.593 345.486 239.564 346.324 253.994 346.324 269.739 346.324 285.262 345.326 300.13 343.356 308.958 342.166 314.372 337.011 316.15 335.317L316.273 335.2C321.425 330.15 325.918 324.825 329.849 319.758 332.322 320.87 335.051 321.465 337.898 321.465 343.921 321.439 350.036 320.529 356.628 318.683 362.676 316.986 367.476 312.647 369.8 306.777 372.313 300.422 372.238 294.573 371.964 290.725 371.932 290.288 371.874 289.737 371.771 289.101 376.744 283.419 379.301 276.56 379.219 268.984 379.187 265.855 379.179 262.722 379.172 259.59 379.168 258.043 379.164 256.494 379.157 254.944 379.18 253.836 379.151 252.833 379.124 252.003 381.581 247.383 381.862 242.918 382.026 240.335 382.026 240.335 382.06 239.794 382.074 239.611 382.579 233.311 382.723 227.143 382.73 220.697H382.875L382.876 219.753H506.876C525.869 219.753 541.322 204.344 541.322 185.404V34.349C541.322 15.409 525.869 0 506.876 0Z" fill="#002745"/>
<path transform="matrix(1,0,0,-1,283.2313,36.95529)" d="M0 0C-9.269-.307-17.997-.977-26.434-2.025-27.779-2.189-28.081-2.484-28.325-2.72-30.668-5.028-32.984-7.499-35.261-10.119-25.184-9.076-15.103-8.652-5.397-8.365-3.803-5.551-2.002-2.76 0 0M87.763-52.442C92.402-51.686 97.052-50.674 101.664-49.418 100.522-49.335 99.417-49.292 98.377-49.292 94.578-49.292 91.35-49.86 88.786-50.98 88.158-51.256 87.899-51.37 87.764-52.415 87.764-52.424 87.763-52.433 87.763-52.442M-75.216-49.389C-72.566-50.097-69.676-50.773-66.431-51.445L-65.195-51.704C-63.845-51.988-62.534-52.265-61.272-52.476-61.319-52.211-61.381-51.928-61.46-51.627-61.483-51.536-61.506-51.448-61.775-51.258-64.217-49.93-67.502-49.311-72.081-49.311-72.975-49.311-73.932-49.334-75.008-49.38-75.077-49.383-75.146-49.386-75.216-49.389M-32.108-69.845C-18.733-71.735-5.017-72.737 7.517-72.737 9.174-72.737 10.82-72.719 12.447-72.683L12.605-72.68 12.763-72.682C14.291-72.705 15.811-72.717 17.326-72.717 30.945-72.717 44.298-71.798 58.146-69.908 58.365-69.878 58.524-69.844 58.632-69.816 58.633-69.815 58.633-69.814 58.633-69.813 59.366-68.116 60.117-66.376 60.794-64.659 60.793-64.658 60.792-64.658 60.79-64.657 54.931-61.607 46.562-61.37 38.466-61.141 36.311-61.08 34.082-61.018 31.931-60.9 31.101-60.871 30.27-60.86 29.439-60.86 27.92-60.86 26.4-60.896 24.881-60.931 23.276-60.967 21.618-61.005 19.941-61.005 19.208-61.005 18.475-60.998 17.744-60.981 16.946-60.962 16.148-60.955 15.349-60.955 14.213-60.955 13.077-60.969 11.94-60.982 10.738-60.996 9.537-61.01 8.335-61.01 6.48-61.01 4.934-60.977 3.472-60.907 1.772-60.825 .025-60.786-1.868-60.786-7.086-60.786-12.273-61.087-17.764-61.406L-18.169-61.43C-23.358-61.731-27.982-62.103-32.021-63.606L-32.149-63.652C-33.015-63.959-33.748-64.338-34.287-64.677-33.607-66.553-32.927-68.317-32.108-69.845M-240.187-308.716C-254.498-308.716-266.141-297.116-266.141-282.858V-131.803C-266.141-117.544-254.498-105.944-240.187-105.944H-108.488L-108.485-105H-107.496C-107.59-96.302-107.659-87.326-106.905-78.322L-106.851-77.649C-106.656-75.13-106.354-71.208-103.972-67.535-103.868-65.844-103.909-64.057-103.958-62.476-104.108-57.601-104.046-52.739-103.985-48.037L-103.974-47.16C-103.896-41.014-101.248-35.632-96.105-31.165-95.851-30.944-95.594-30.725-95.335-30.509-96.322-28.774-96.829-26.64-96.883-24.075-96.907-22.986-96.886-21.897-96.822-20.842-96.259-11.66-92.364-7.251-83.376-5.623-80.153-5.039-76.66-4.466-72.946-4.223-72.594-4.2-72.253-4.189-71.922-4.189-67.567-4.189-63.925-6.168-61.713-9.612-56.828-2.765-51.207 4.001-44.723 10.848-41.049 15.001-36.191 17.397-29.877 18.172L-29.767 18.185C-14.974 19.805-.314 20.627 13.807 20.627 29.182 20.627 44.329 19.653 58.829 17.732 64.28 16.997 67.877 14.087 70.109 11.961L70.198 11.876C77.003 5.207 82.842-2.292 88.207-9.677 90.234-6.211 93.677-4.232 97.711-4.232 102.944-4.255 108.303-5.062 114.151-6.7 117.673-7.688 120.359-10.122 121.718-13.555 123.594-18.297 123.524-22.858 123.308-25.876 123.245-26.749 122.977-28.608 121.873-30.515 121.897-30.534 121.92-30.554 121.944-30.573 127.724-35.291 130.617-41.199 130.542-48.131 130.509-51.286 130.502-54.441 130.494-57.596 130.491-59.176 130.487-60.755 130.48-62.335 130.503-63.338 130.473-64.277 130.445-65.111 130.419-65.924 130.38-67.12 130.464-67.619 132.967-71.099 133.206-74.88 133.365-77.406 133.384-77.699 133.401-77.991 133.425-78.278 134.148-87.29 134.092-96.281 134.006-105H134.212L134.214-105.944H266.689C281.001-105.944 292.644-117.544 292.644-131.803V-282.858C292.644-297.116 281.001-308.716 266.689-308.716Z" fill="#ffffff"/>
<path transform="matrix(1,0,0,-1,224.0192,149.18149)" d="M0 0C.251 1.492 .766 1.774 2.149 1.695 11.427 1.17 20.708 .602 30.007 1.229 34.159 1.51 38.2 2.239 41.887 4.304 43.735 5.339 45.685 5.777 47.814 5.773 64.272 5.739 80.73 5.741 97.188 5.772 99.216 5.775 101.099 5.395 102.856 4.401 104.998 3.19 107.29 2.358 109.691 1.885 119.992 .014 130.504 1.463 140.896 1.452 142.088 1.476 143.576 2.342 144.388 1.436 144.95 .809 145.024-.259 145.16-1.265H-.225C-.152-.875-.078-.464 0 0M-31.804 63.846C-31.459 66.454-30.115 68.593-27.538 69.724-25.075 70.806-22.414 70.79-19.823 71.143-18.617 71.307-17.384 71.273-16.163 71.328-10.071 71.592-3.566 71.322 1.854 68.226 3.909 66.915 5.346 65.133 5.969 62.739 6.718 59.863 6.82 56.98 5.92 54.131 5.142 51.669 3.94 50.828 1.33 50.885-2.158 50.961-5.543 51.763-8.941 52.467-14.174 53.551-19.357 54.813-24.436 56.49-27.672 57.577-32.25 59.83-31.804 63.846M6.597 93.569C12.065 101.432 18.135 108.863 24.969 115.594 26.913 117.484 29.153 118.311 31.732 118.627 46.647 120.48 61.677 121.069 76.689 120.877 77.031 120.88 77.407 120.959 77.747 120.586 70.706 113.744 64.42 106.016 59.9 97.271 59.304 96.001 58.526 95.5 57.117 95.462 42.874 95.07 28.614 94.52 14.514 92.345 12.286 92.03 10.056 91.726 7.828 91.411 7.181 91.319 6.414 91.086 6.049 91.775 5.707 92.42 6.229 93.042 6.597 93.569M122.031 27.371C119.077 23.061 115.316 19.891 110.043 18.676 97.735 15.884 85.064 15.747 72.507 15.906 59.247 15.866 45.688 15.629 32.824 19.31 28.273 20.747 25.191 23.952 22.68 27.799 21.774 29.187 22.129 29.808 23.825 29.914 27.311 30.132 30.775 29.639 34.214 29.241 46.537 27.813 58.876 26.914 71.292 27.187 84.252 27.101 97.197 27.495 110.068 29.163 113.607 29.564 117.157 30.04 120.734 29.925 122.943 29.855 123.287 29.205 122.031 27.371M24.23 56.578C29.497 58.538 35.027 58.952 40.551 59.273 48.056 59.709 55.577 60.16 63.09 59.8 67.783 59.575 72.466 59.844 77.156 59.733 81.93 59.621 86.743 59.982 91.526 59.809 102.027 59.227 114.618 60.035 124.099 55.008 127.14 53.289 130.087 49.992 128.621 46.332 127.721 43.87 126.68 41.456 125.64 39.048 124.294 35.929 121.909 34.37 118.506 33.905 103.211 31.818 87.857 30.811 71.846 31.054 56.984 30.727 40.8 31.867 25.784 33.993 23.102 34.387 21.074 35.721 19.756 38.121 18.259 40.846 17.256 43.786 16.213 46.686 14.6 51.628 20.211 55.155 24.23 56.578M58.006 84.798C58.579 84.806 59.087 84.746 59.556 84.611 59.087 84.746 58.579 84.806 58.006 84.798 50.708 84.784 43.413 84.725 36.123 84.541 43.412 84.725 50.708 84.784 58.006 84.798M138.518 60.571C138.945 64.522 140.905 67.403 144.6 69.027 149.915 71.348 155.945 71.697 161.641 71.265 164.341 71.377 166.944 70.925 169.546 70.572 172.483 70.175 174.893 68.867 176.148 65.969 177.26 63.401 176.826 61.293 174.743 59.371 173.34 58.076 171.667 57.212 169.878 56.633 162.018 54.087 153.995 52.197 145.821 51.016 138.705 49.748 138.135 54.775 138.518 60.571M325.901-2.209H184.951L184.949-1.265H184.608C184.642-.957 184.66-.627 184.662-.271 184.719 10.912 185.069 22.1 184.173 33.268 183.994 35.506 184.056 37.979 182.699 39.763 180.486 42.808 181.301 46.355 181.201 49.801 181.222 54.596 181.214 59.391 181.265 64.185 181.314 68.774 179.268 72.234 175.787 75.075 171.975 78.188 167.813 80.658 163.3 82.591 162.434 82.962 161.319 83.029 160.771 84.119 164.495 84.17 168.143 83.954 171.787 84.806 172.949 85.108 173.954 85.599 174.051 86.955 174.26 89.878 174.138 92.761 173.035 95.547 172.65 96.521 172.059 97.074 171.073 97.35 166.448 98.645 161.761 99.482 156.94 99.503 155.866 99.508 155.199 99.092 154.693 98.164 153.792 96.509 153.176 94.752 152.576 92.976 151.978 91.208 151.49 89.405 150.489 87.776 149.782 86.624 149.124 86.026 147.598 86.24 115.726 89.867 83.603 89.252 51.577 89.141 43.128 89.085 34.68 88.751 26.234 88.495 23.56 88.414 20.893 87.948 17.573 88.369 35.697 91.106 52.906 91.465 71.014 91.753 85.674 91.86 100.336 91.898 114.99 91.235 123.904 90.832 132.809 90.375 141.667 89.238 142.832 89.089 144.334 88.099 145.109 89.202 146.066 90.563 144.64 91.809 143.884 92.914 137.634 101.702 131.187 110.473 123.467 118.038 121.614 119.803 119.653 121.174 116.926 121.541 88.243 125.341 59.116 125.119 30.37 121.971 26.567 121.504 23.311 120.285 20.763 117.352 12.054 108.167 4.098 98.203-2.379 87.274-3.227 85.808-4.129 85.753-5.093 87.113-5.963 88.342-6.587 89.695-7.058 91.138-7.696 93.093-8.456 95.009-9.134 96.952-9.81 98.891-11.038 99.672-13.18 99.531-16.376 99.321-19.514 98.817-22.651 98.248-27.839 97.309-28.809 96.197-29.135 90.868-29.186 90.024-29.2 89.176-29.183 88.331-29.126 85.68-28.814 85.332-26.256 84.701-22.77 83.887-19.364 84.29-15.753 84.203-16.417 83.061-17.529 82.954-18.429 82.567-23.117 80.553-27.463 78.005-31.325 74.651-34.284 72.082-36.22 69.07-36.272 64.958-36.335 59.975-36.413 54.994-36.259 50.013-36.186 47.661-36.152 45.316-36.379 42.972-36.443 42.32-36.351 41.591-36.831 41.088-38.964 38.854-38.999 35.961-39.231 33.195-40.167 22.033-39.778 10.844-39.724-.336-39.722-.669-39.703-.975-39.672-1.265H-40.806C-40.806-1.581-40.807-1.896-40.808-2.209H-180.975C-190.618-2.209-198.439-9.988-198.439-19.577V-170.632C-198.439-180.224-190.618-187.999-180.975-187.999H325.901C335.544-187.999 343.366-180.224 343.366-170.632V-19.577C343.366-9.988 335.544-2.209 325.901-2.209" fill="#002745"/>
<path transform="matrix(1,0,0,-1,200.05539,255.1356)" d="M0 0V21.884H18.088C22.849 21.884 28.409 18.962 28.409 10.731 28.409 6.475 26.528 1.442 21.27 0ZM46.78-41.659V-39.079L27.296-13.848C33.741-11.89 38.345-7.795 41.002-1.654 42.611 2.06 43.425 6.338 43.425 11.061 43.425 23.853 35.498 37.67 18.088 37.793 12.769 37.793 7.364 37.821 2.132 37.845-3.101 37.874-8.511 37.9-13.835 37.9H-15.016V-41.659H0V-15.887H10.407L29.965-41.659Z" fill="#ffffff"/>
<path transform="matrix(1,0,0,-1,129.4583,265.2276)" d="M0 0 11.245 29.617 22.493 0ZM51.454-31.567 20.39 47.994H2.103L-28.964-31.567H-12.175L-6.193-16.451H28.681L34.563-31.567Z" fill="#ffffff"/>
<path transform="matrix(1,0,0,-1,553.4637,296.79469)" d="M0 0V79.562H-15.403V48.679H-47.285V79.562H-62.79V0H-47.285V32.363H-15.403V0Z" fill="#ffffff"/>
<path transform="matrix(1,0,0,-1,456.8506,296.79469)" d="M0 0C7.759 0 14.445 1.992 19.329 5.758 24.873 10.036 27.806 16.474 27.806 24.382 27.806 31.622 25.764 37.069 21.563 41.035 16.25 46.054 8.314 47.753 1.246 48.754-9.635 50.24-11.861 53.022-11.861 56.736-11.861 62.057-7.393 65.231 .089 65.231 6.636 65.231 12.182 61.378 14.076 57.75L14.652 56.647 26.128 63.428 25.716 64.382C21.474 74.313 12.489 79.562-.283 79.562-13.084 79.446-26 72.474-26 57.155-26 48.901-23.08 43.022-17.08 39.179-13.058 36.605-7.812 34.985-.055 33.924 9.244 32.778 13.581 29.748 13.581 24.382 13.581 15.341 3.326 14.639 .178 14.639-7.935 14.639-14.189 18.663-16.548 25.397L-17.025 26.76-29.061 19.598-28.739 18.684C-24.29 6.112-14.891 0 0 0" fill="#ffffff"/>
<path transform="matrix(1,0,0,-1,357.9643,217.2356)" d="M0 0-21.124-52.616-36.999 0H-47.013L-62.433-52.616-82.909 0H-99.627L-68.689-79.559H-56.229L-47.78-54.663-41.893-34.01-35.92-54.503-27.293-79.559H-14.83L15.613 0Z" fill="#ffffff"/>
<path transform="matrix(1,0,0,-1,74.8414,296.79469)" d="M0 0C10.015 0 18.788 3.94 25.372 11.397L26.052 12.168 16.205 23.609 15.312 22.579C11.497 18.199 5.631 15.478 0 15.478-10.067 15.478-20.872 21.753-21.003 39.365-21.005 39.638-20.995 39.905-20.984 40.175L-20.969 40.568C-20.461 57.768-9.357 63.871 0 63.871 5.683 63.871 10.897 61.53 14.676 57.286L15.551 56.303 25.24 67.053 24.544 67.847C17.777 75.509 9.289 79.559 0 79.559-10.894 79.559-20.02 75.33-26.397 67.331-31.944 60.366-35.11 50.882-35.314 40.631L-35.32 40.492C-35.325 40.115-35.333 39.732-35.333 39.352-35.283 28.833-32.303 19.237-26.95 12.328-20.696 4.262-11.379 0 0 0" fill="#ffffff"/>
<path transform="matrix(1,0,0,-1,159.4898,176.4273)" d="M0 0H-10.095V5.455H16.093V0H6V-26.37H0Z" fill="#b7e0de"/>
<path transform="matrix(1,0,0,-1,186.2539,176.6034)" d="M0 0H9.141C12.913 0 14.595-2.543 14.595-5.084 14.595-7.626 12.958-10.169 9.141-10.169H0ZM22.188-26.194V-25.787L12.549-14.935C18.597-13.711 20.598-9.306 20.598-4.947 20.598 .545 16.642 5.54 9.141 5.585 4.093 5.585-.955 5.631-6.001 5.631V-26.194H0V-15.571H5.775L15.05-26.194Z" fill="#b7e0de"/>
<path transform="matrix(1,0,0,-1,228.51569,177.6572)" d="M0 0 5.911-13.549H-5.909ZM8.322-19.14 11.002-25.14H17.55L3.274 6.684H-3.272L-17.548-25.14H-11.048L-8.319-19.14Z" fill="#b7e0de"/>
<path transform="matrix(1,0,0,-1,254.51581,197.02442)" d="M0 0V20.368H6.546C13.458 20.368 16.368 15.413 16.505 10.457 16.641 5.273 13.776 0 6.546 0ZM22.459 10.411C22.323 18.276 17.46 26.052 6.546 26.052H-5.955V-5.773H6.546C17.687-5.773 22.596 2.365 22.459 10.411" fill="#b7e0de"/>
<path transform="matrix(1,0,0,-1,305.2578,202.7973)" d="M0 0H-23.824V31.825H0V26.006H-17.867V18.685H-.637V13.094H-17.867V5.909H0Z" fill="#b7e0de"/>
<path transform="matrix(1,0,0,-1,338.0282,179.703)" d="M0 0-10.366-13.819H-11.548L-21.686 .048V-23.094H-27.689V8.73H-20.777L-10.82-4.954-.864 8.73H6V-23.094H0Z" fill="#b7e0de"/>
<path transform="matrix(1,0,0,-1,364.7373,177.6572)" d="M0 0 5.907-13.549H-5.911ZM8.317-19.14 11-25.14H17.546L3.272 6.684H-3.276L-17.55-25.14H-11.05L-8.321-19.14Z" fill="#b7e0de"/>
<path transform="matrix(1,0,0,-1,391.6105,176.6034)" d="M0 0H9.138C12.913 0 14.593-2.543 14.593-5.084 14.593-7.626 12.958-10.169 9.138-10.169H0ZM22.188-26.194V-25.787L12.549-14.935C18.595-13.711 20.596-9.306 20.596-4.947 20.596 .545 16.642 5.54 9.138 5.585 4.093 5.585-.953 5.631-6.001 5.631V-26.194H0V-15.571H5.775L15.05-26.194Z" fill="#b7e0de"/>
<path transform="matrix(1,0,0,-1,442.39759,171.1546)" d="M0 0-14.14-15.231 1.18-31.279V-31.643H-6.23L-19.551-17.548V-31.643H-25.554V.182H-19.551V-13.276L-7.458 .182H0Z" fill="#b7e0de"/>
<path transform="matrix(1,0,0,-1,379.9817,265.2276)" d="M0 0 11.245 29.617 22.493 0ZM51.454-31.567 20.39 47.994H2.103L-28.964-31.567H-12.175L-6.193-16.451H28.681L34.563-31.567Z" fill="#ffffff"/>
<path transform="matrix(1,0,0,-1,295.8652,118.127017)" d="M0 0C-14.864-.327-31.043 .813-46.062 2.939-48.744 3.333-50.772 4.667-52.09 7.066-53.587 9.791-54.59 12.731-55.633 15.632-56.372 17.688-55.71 19.697-54.216 21.367-48.603 27.201-38.896 27.693-31.295 28.219-23.79 28.654-16.269 29.106-8.756 28.746-4.063 28.521 .62 28.789 5.31 28.679 10.084 28.567 14.897 28.928 19.68 28.754 29.92 28.125 48.594 29.276 55.689 21.077 57.125 19.371 57.54 17.368 56.775 15.278 55.875 12.815 54.834 10.402 53.794 7.993 52.448 4.874 50.063 3.315 46.66 2.851 31.365 .764 16.011-.244 0 0" fill="#b7e0de"/>
<path transform="matrix(1,0,0,-1,301.7663,28.595093)" d="M0 0C-7.041-6.842-13.328-14.57-17.848-23.315-18.443-24.586-19.221-25.087-20.63-25.125-34.873-25.516-49.133-26.067-63.233-28.241-65.461-28.557-67.691-28.86-69.919-29.176-70.566-29.267-71.333-29.501-71.698-28.812-72.04-28.166-71.518-27.545-71.15-27.017-65.682-19.155-59.612-11.723-52.778-4.992-50.834-3.102-48.594-2.275-46.015-1.959-31.1-.107-16.07 .483-1.058 .29-.716 .294-.34 .372 0 0" fill="#b7e0de"/>
<path transform="matrix(1,0,0,-1,296.5269,133.2763)" d="M0 0C-13.261-.039-26.82-.276-39.684 3.405-44.235 4.842-47.316 8.047-49.828 11.894-50.734 13.282-50.379 13.903-48.683 14.009-45.197 14.227-41.733 13.734-38.294 13.336-25.971 11.908-13.631 11.009-1.216 11.282 11.746 11.195 24.687 11.589 37.56 13.259 41.099 13.659 44.649 14.135 48.226 14.02 50.435 13.949 50.78 13.299 49.523 11.466 46.569 7.156 42.808 3.985 37.535 2.771 25.227-.022 12.556-.158 0 0" fill="#ffffff"/>
<path transform="matrix(1,0,0,-1,207.8558,77.85309)" d="M0 0C6.091 .265 12.598-.006 18.018-3.102 20.072-4.413 21.509-6.196 22.132-8.59 22.881-11.465 22.984-14.349 22.084-17.197 21.306-19.66 20.103-20.5 17.494-20.443 14.005-20.367 10.621-19.566 7.222-18.862 1.99-17.778-3.194-16.515-8.272-14.839-11.513-13.75-16.083-11.499-15.641-7.483-15.295-4.874-13.951-2.735-11.374-1.604-8.912-.522-6.25-.538-3.659-.185-2.453-.021-1.221-.056 0 0" fill="#ffffff"/>
<path transform="matrix(1,0,0,-1,385.6604,77.91669)" d="M0 0C2.7 .113 5.303-.34 7.905-.692 10.842-1.09 13.252-2.398 14.507-5.295 15.619-7.864 15.185-9.972 13.102-11.894 11.699-13.189 10.026-14.053 8.237-14.632 .377-17.178-7.646-19.067-15.82-20.249-22.953-21.501-23.498-16.517-23.124-10.693-22.696-6.743-20.736-3.862-17.042-2.238-11.727 .084-5.696 .432 0 0" fill="#ffffff"/>
<path transform="matrix(1,0,0,-1,236.27191,98.29901)" d="M0 0C0 0 77.236-8.217 120.176 2.158 120.176 2.158 85.449-13.404 0 0" fill="#002745"/>
<path transform="matrix(1,0,0,-1,236.27191,103.77469)" d="M0 0C0 0 77.236-8.217 120.176 2.158 120.176 2.158 85.449-13.404 0 0" fill="#002745"/>
<path transform="matrix(1,0,0,-1,236.27191,92.91791)" d="M0 0C0 0 77.236-8.217 120.176 2.158 120.176 2.158 85.449-13.404 0 0" fill="#002745"/>
<path transform="matrix(1,0,0,-1,236.27191,108.76849)" d="M0 0C0 0 77.236-8.217 120.176 2.158 120.176 2.158 85.449-13.404 0 0" fill="#002745"/>
</g>
<use data-text="P" xlink:href="#font_3_13" transform="matrix(26.5,0,0,-26.5,40.543,328.2197)" fill="#b7e0de"/>
<use data-text="O" xlink:href="#font_3_12" transform="matrix(26.5,0,0,-26.5,58.854494,328.2197)" fill="#b7e0de"/>
<use data-text="W" xlink:href="#font_3_17" transform="matrix(26.5,0,0,-26.5,79.23299,328.2197)" fill="#b7e0de"/>
<use data-text="E" xlink:href="#font_3_6" transform="matrix(26.5,0,0,-26.5,108.48898,328.2197)" fill="#b7e0de"/>
<use data-text="R" xlink:href="#font_3_14" transform="matrix(26.5,0,0,-26.5,125.422489,328.2197)" fill="#b7e0de"/>
<use data-text="E" xlink:href="#font_3_6" transform="matrix(26.5,0,0,-26.5,143.70749,328.2197)" fill="#b7e0de"/>
<use data-text="D" xlink:href="#font_3_5" transform="matrix(26.5,0,0,-26.5,160.64099,328.2197)" fill="#b7e0de"/>
<use data-text=" " xlink:href="#font_3_1" transform="matrix(26.5,0,0,-26.5,179.668,328.2197)" fill="#b7e0de"/>
<use data-text="B" xlink:href="#font_3_3" transform="matrix(26.5,0,0,-26.5,185.41849,328.2197)" fill="#b7e0de"/>
<use data-text="Y" xlink:href="#font_3_18" transform="matrix(26.5,0,0,-26.5,202.80249,328.2197)" fill="#b7e0de"/>
<use data-text=" " xlink:href="#font_3_1" transform="matrix(26.5,0,0,-26.5,221.69699,328.2197)" fill="#b7e0de"/>
<use data-text="S" xlink:href="#font_3_15" transform="matrix(26.5,0,0,-26.5,227.44748,328.2197)" fill="#b7e0de"/>
<use data-text="T" xlink:href="#font_3_16" transform="matrix(26.5,0,0,-26.5,245.36148,328.2197)" fill="#b7e0de"/>
<use data-text="R" xlink:href="#font_3_14" transform="matrix(26.5,0,0,-26.5,262.0565,328.2197)" fill="#b7e0de"/>
<use data-text="I" xlink:href="#font_3_8" transform="matrix(26.5,0,0,-26.5,280.3415,328.2197)" fill="#b7e0de"/>
<use data-text="C" xlink:href="#font_3_4" transform="matrix(26.5,0,0,-26.5,287.52299,328.2197)" fill="#b7e0de"/>
<use data-text="K" xlink:href="#font_3_9" transform="matrix(26.5,0,0,-26.5,306.25849,328.2197)" fill="#b7e0de"/>
<use data-text="L" xlink:href="#font_3_10" transform="matrix(26.5,0,0,-26.5,324.0135,328.2197)" fill="#b7e0de"/>
<use data-text="A" xlink:href="#font_3_2" transform="matrix(26.5,0,0,-26.5,339.91349,328.2197)" fill="#b7e0de"/>
<use data-text="N" xlink:href="#font_3_11" transform="matrix(26.5,0,0,-26.5,360.451,328.2197)" fill="#b7e0de"/>
<use data-text="D" xlink:href="#font_3_5" transform="matrix(26.5,0,0,-26.5,379.74299,328.2197)" fill="#b7e0de"/>
<use data-text=" " xlink:href="#font_3_1" transform="matrix(26.5,0,0,-26.5,398.77,328.2197)" fill="#b7e0de"/>
<use data-text="B" xlink:href="#font_3_3" transform="matrix(26.5,0,0,-26.5,404.52049,328.2197)" fill="#b7e0de"/>
<use data-text="R" xlink:href="#font_3_14" transform="matrix(26.5,0,0,-26.5,423.01747,328.2197)" fill="#b7e0de"/>
<use data-text="O" xlink:href="#font_3_12" transform="matrix(26.5,0,0,-26.5,441.30244,328.2197)" fill="#b7e0de"/>
<use data-text="T" xlink:href="#font_3_16" transform="matrix(26.5,0,0,-26.5,461.41596,328.2197)" fill="#b7e0de"/>
<use data-text="H" xlink:href="#font_3_7" transform="matrix(26.5,0,0,-26.5,478.11097,328.2197)" fill="#b7e0de"/>
<use data-text="E" xlink:href="#font_3_6" transform="matrix(26.5,0,0,-26.5,497.9065,328.2197)" fill="#b7e0de"/>
<use data-text="R" xlink:href="#font_3_14" transform="matrix(26.5,0,0,-26.5,514.83999,328.2197)" fill="#b7e0de"/>
<use data-text="S" xlink:href="#font_3_15" transform="matrix(26.5,0,0,-26.5,533.9464,328.2197)" fill="#b7e0de"/>
</g>
</g>
</g>
</svg>
